<svg xmlns="http://www.w3.org/2000/svg" width="44" height="39" viewBox="0 0 44 39" fill="none">
  <!-- Blue checkmark shape -->
  <path fill="#4A67FF" d="M42.804 12.93a4.1 4.1 0 0 0-5.79 0l-12.2 12.201-4.065-4.065a4.1 4.1 0 0 0-5.79 0 4.09 4.09 0 0 0 0 5.79l6.96 6.966a4.09 4.09 0 0 0 5.79 0l15.1-15.095a4.103 4.103 0 0 0-.005-5.796"/>
  
  <!-- Pink/Red checkmark shape -->
  <path fill="#FC7785" d="M1.196 25.57a4.1 4.1 0 0 0 5.79 0l12.2-12.201 4.065 4.065a4.1 4.1 0 0 0 5.79 0 4.09 4.09 0 0 0 0-5.79l-6.96-6.966a4.09 4.09 0 0 0-5.79 0l-15.1 15.095a4.103 4.103 0 0 0 .005 5.796"/>
</svg>
