<svg xmlns="http://www.w3.org/2000/svg" width="164" height="39" fill="none">
  <!-- Diligentsia text for light mode (black) -->
  <g fill="#000000">
    <path d="M55.656 25V9.248h6.216q3.486 0 5.018 1.826 1.931 2.288 1.931 6.05 0 3.785-1.931 6.05Q65.336 25 61.872 25zm3.263-2.706h2.953q3.686 0 3.686-5.17t-3.686-5.17H58.92zm15.297-8.954V25h-3.064V13.34zm6.071-4.092V25h-3.064V9.248zm6.07 4.092V25h-3.063V13.34zm10.423 0h2.909v11.55q0 2.706-1.71 3.872-1.444.945-3.952.946-2.62 0-3.996-1.122-1.132-.902-1.177-2.178h3.153q.377 1.365 2.175 1.364 1.133 0 1.91-.704.688-.616.688-1.914v-1.738q-.843 1.035-1.576 1.43-.733.396-1.776.396-2.287 0-3.62-1.848-1.176-1.584-1.176-4.026 0-2.881 1.576-4.708 1.377-1.562 3.33-1.562 1.91 0 3.242 1.826zm-2.62 2.288q-1.11 0-1.798 1.012-.666 1.012-.666 2.64 0 1.561.666 2.508.688.946 1.798.946 1.155 0 1.91-.968.71-.901.71-2.508 0-1.738-.821-2.75-.71-.88-1.799-.88m18.664 4.334h-7.903q.066 1.408.444 2.002.643.968 2.02.968 1.71 0 2.287-1.408h3.019a4.9 4.9 0 0 1-1.998 2.728q-1.466.99-3.441.99-2.687 0-4.13-1.782-1.265-1.562-1.265-4.114 0-3.102 1.643-4.796 1.443-1.452 3.796-1.452 1.799 0 3.153.88t1.931 2.464q.467 1.232.467 2.97 0 .22-.023.55m-3.174-2.002q-.222-2.552-2.376-2.552-2.02 0-2.309 2.552zm5.341-4.62h3.064v1.65q1.243-1.892 3.508-1.892 2.02 0 3.064 1.188.888 1.056.888 2.86V25h-3.042v-7.238q0-2.09-1.976-2.09-1.11 0-1.776.638-.666.615-.666 1.65V25h-3.064zm18.907 0v2.002h-2.065v6.49q0 .638.222.88.245.242.866.242.511 0 1.31-.396.066-.044.111-.066l.355 2.068a6.6 6.6 0 0 1-2.93.682q-2.998 0-2.998-2.728v-7.172h-1.509V13.34h1.509v-1.936l3.064-1.738v3.674zm12.566 3.432h-3.109q-.022-.705-.51-.99-.489-.308-1.688-.308-1.753 0-1.753 1.012 0 .595 1.065.88l3.863 1.078q2.31.638 2.309 2.904 0 1.782-1.398 2.882-1.31 1.012-3.775 1.012-3.02 0-4.329-.88-1.288-.836-1.377-2.706h3.042q.133.726.622.968.51.242 1.865.242 2.286 0 2.286-1.078 0-.637-1.021-.946l-3.641-1.1q-1.398-.418-1.909-.968-.666-.682-.666-1.848 0-1.914 1.465-2.948 1.287-.88 3.375-.88 2.53 0 3.996 1.122 1.266.99 1.288 2.552m5.437-3.432V25h-3.064V13.34zm13.02 10.89V25h-3.33q-.334-.419-.355-1.188-1.222 1.43-3.553 1.43-1.71 0-2.753-1.034-.844-.835-.844-2.31 0-2.2 1.777-3.124.753-.396 2.997-.792l2.398-.44-.022-.836q-.024-1.166-1.777-1.166-1.131 0-1.598.352-.445.33-.555 1.232h-2.931q.266-4.026 5.018-4.026 2.619 0 3.774.924 1.043.88 1.044 2.662v6.512q0 .792.71 1.034m-3.663-4.862-2.243.506q-.954.22-1.421.638a1.36 1.36 0 0 0-.444 1.034q0 1.254 1.643 1.254 2.376 0 2.443-2.574zM71.152 9.248h3.064v2.618h-3.064zM83.294 9.248h3.064v2.618h-3.064zM148.837 9.248h3.064v2.618h-3.064z"/>
  </g>
  
  <!-- Blue checkmark shape -->
  <g>
    <path fill="#4A67FF" d="M42.804 12.93a4.1 4.1 0 0 0-5.79 0l-12.2 12.201-4.065-4.065a4.1 4.1 0 0 0-5.79 0 4.09 4.09 0 0 0 0 5.79l6.96 6.966a4.09 4.09 0 0 0 5.79 0l15.1-15.095a4.103 4.103 0 0 0-.005-5.796"/>
  </g>
  
  <!-- Pink/Red checkmark shape -->
  <g>
    <path fill="#FC7785" d="M1.196 25.57a4.1 4.1 0 0 0 5.79 0l12.2-12.201 4.065 4.065a4.1 4.1 0 0 0 5.79 0 4.09 4.09 0 0 0 0-5.79l-6.96-6.966a4.09 4.09 0 0 0-5.79 0l-15.1 15.095a4.103 4.103 0 0 0 .005 5.796"/>
  </g>
</svg>